<svg xmlns="http://www.w3.org/2000/svg" version="1.1" xmlns:xlink="http://www.w3.org/1999/xlink" viewBox="0 0 200 200"><rect width="200" height="200" fill="url('#gradient')"></rect><defs><linearGradient id="gradient" gradientTransform="rotate(183 0.5 0.5)"><stop offset="0%" stop-color="#ffffff"></stop><stop offset="100%" stop-color="#ffffff"></stop></linearGradient></defs><g><g fill="#000000" transform="matrix(5.479191438763377,0,0,5.479191438763377,4.114148219757212,138.41085176093682)" stroke="#ffffff" stroke-width="0"><path d="M5.75 0L1.07 0L1.07-14.22L5.65-14.22Q7.54-14.22 9.04-13.36Q10.55-12.51 11.39-10.95Q12.24-9.39 12.25-7.46L12.25-7.46L12.25-6.81Q12.25-4.85 11.42-3.31Q10.60-1.76 9.10-0.88Q7.60-0.01 5.75 0L5.75 0ZM5.65-11.57L4.50-11.57L4.50-2.64L5.69-2.64Q7.17-2.64 7.96-3.69Q8.75-4.74 8.75-6.81L8.75-6.81L8.75-7.42Q8.75-9.48 7.96-10.53Q7.17-11.57 5.65-11.57L5.65-11.57ZM23.10 0L19.80 0Q19.63-0.32 19.49-0.95L19.49-0.95Q18.58 0.20 16.95 0.20L16.95 0.20Q15.46 0.20 14.41-0.71Q13.37-1.61 13.37-2.98L13.37-2.98Q13.37-4.70 14.64-5.58Q15.91-6.46 18.33-6.46L18.33-6.46L19.35-6.46L19.35-7.01Q19.35-8.47 18.09-8.47L18.09-8.47Q16.91-8.47 16.91-7.31L16.91-7.31L13.62-7.31Q13.62-8.85 14.93-9.80Q16.23-10.76 18.25-10.76Q20.27-10.76 21.45-9.78Q22.62-8.79 22.65-7.07L22.65-7.07L22.65-2.39Q22.67-0.94 23.10-0.17L23.10-0.17L23.10 0ZM17.74-2.15L17.74-2.15Q18.36-2.15 18.76-2.41Q19.17-2.68 19.35-3.01L19.35-3.01L19.35-4.70L18.39-4.70Q16.67-4.70 16.67-3.15L16.67-3.15Q16.67-2.71 16.97-2.43Q17.28-2.15 17.74-2.15ZM24.40-10.57L27.49-10.57L27.60-9.33Q28.69-10.76 30.62-10.76L30.62-10.76Q32.27-10.76 33.08-9.78Q33.90-8.79 33.93-6.81L33.93-6.81L33.93 0L30.63 0L30.63-6.67Q30.63-7.47 30.30-7.85Q29.98-8.22 29.13-8.22L29.13-8.22Q28.16-8.22 27.70-7.46L27.70-7.46L27.70 0L24.40 0L24.40-10.57Z"></path></g></g></svg>